<?xml version="1.0" encoding="UTF-8"?>
<svg id="Layer_1" xmlns="http://www.w3.org/2000/svg" version="1.1" viewBox="0 0 78.32 41.29">
  <!-- Generator: Adobe Illustrator 29.3.1, SVG Export Plug-In . SVG Version: 2.1.0 Build 151)  -->
  <defs>
    <style>
      .st0 {
        fill: #fff;
      }
    </style>
  </defs>
  <g>
    <path class="st0" d="M9.79,37.11c-.1-.34-.25-.65-.45-.91-.2-.27-.45-.48-.74-.65-.3-.16-.64-.25-1.03-.25s-.74.08-1.04.25c-.29.16-.54.38-.74.65-.12.16-.23.35-.32.54-.09-.2-.19-.38-.32-.54-.2-.27-.45-.48-.74-.65-.3-.16-.64-.25-1.03-.25s-.74.08-1.04.25c-.29.16-.54.38-.74.65-.2.26-.35.57-.45.91-.1.34-.15.7-.15,1.06,0,.02,0,2.53,0,2.55v.2h.59v-.2s0-2.53,0-2.55c0-.3.04-.59.12-.87.08-.27.2-.52.35-.72.15-.2.34-.37.56-.5.43-.24,1.08-.25,1.51,0,.22.12.41.29.56.5.16.21.27.45.35.72.08.28.12.57.12.87v2.55s.02.2.02.2h.59v-2.75c0-.3.04-.59.12-.87.08-.27.2-.52.35-.72.15-.2.34-.37.56-.5.43-.24,1.08-.25,1.51,0,.22.12.41.29.56.5.15.21.27.45.35.72.08.28.12.57.12.87v2.75s.58,0,.58,0v-.2s0-2.53,0-2.55c0-.37-.05-.73-.15-1.06Z"/>
    <path class="st0" d="M15.15,36.19c-.21-.26-.48-.48-.78-.64-.31-.16-.68-.24-1.08-.24s-.77.08-1.09.24c-.31.16-.57.38-.78.64-.21.26-.37.57-.48.91-.1.34-.16.7-.16,1.07s.05.73.16,1.07c.11.34.27.65.48.91.21.27.48.48.78.64.31.16.67.24,1.08.24s.77-.08,1.08-.24c.31-.16.57-.37.79-.64.21-.26.37-.57.48-.91.1-.34.16-.7.16-1.07s-.05-.73-.16-1.07c-.1-.34-.26-.65-.48-.91ZM13.29,35.9c.3,0,.57.06.81.18.24.13.43.29.6.5.16.2.29.45.37.72.08.28.12.57.12.87s-.04.6-.12.88c-.08.27-.21.52-.37.72-.16.21-.36.37-.6.49-.47.24-1.17.24-1.62,0-.24-.12-.44-.29-.6-.49-.16-.21-.29-.45-.37-.72-.08-.28-.13-.58-.13-.88s.04-.58.13-.87c.08-.27.21-.52.37-.72.16-.21.36-.37.6-.5.23-.12.5-.18.81-.18Z"/>
    <rect class="st0" x="73.01" y="35.42" width=".6" height="5.51"/>
    <path class="st0" d="M77.18,35.3c-.29,0-.56.04-.79.11-.25.08-.47.19-.65.33-.12.09-.23.19-.31.3v-.62h-.6v5.51h.6v-3.09c0-.26.04-.51.11-.76.07-.24.18-.45.33-.63.14-.18.33-.32.56-.42.22-.1.5-.14.81-.13h.21s0-.59,0-.59h-.27Z"/>
    <path class="st0" d="M73.72,33.94c-.04-.06-.1-.1-.16-.14-.14-.07-.32-.07-.45,0-.07.03-.12.08-.16.14-.04.05-.07.11-.09.18-.02.06-.03.13-.03.19s.01.13.03.19c.02.07.05.13.09.18.04.06.1.1.16.13.07.03.14.05.23.05s.16-.02.22-.05c.06-.03.12-.08.16-.14.04-.05.07-.11.09-.18.02-.06.03-.13.03-.19s-.01-.13-.03-.19c-.02-.07-.05-.13-.09-.18Z"/>
    <path class="st0" d="M36.51,36.2c-.2-.27-.45-.48-.74-.65-.3-.16-.64-.25-1.03-.25s-.74.08-1.04.25c-.29.16-.54.38-.74.65-.13.16-.23.35-.32.54-.09-.2-.19-.38-.32-.54-.2-.27-.45-.48-.74-.65-.3-.16-.65-.25-1.03-.25s-.74.08-1.04.25c-.29.16-.54.38-.75.65-.2.26-.35.57-.45.91-.1.34-.15.7-.15,1.06,0,.02,0,2.53,0,2.55v.2h.59v-.2s0-2.53,0-2.55c0-.3.04-.59.12-.87.08-.27.2-.52.35-.72.15-.2.34-.37.56-.5.43-.24,1.08-.25,1.51,0,.22.12.41.29.56.5.15.21.27.45.35.72.08.28.12.57.12.87v2.55l.03.2h.58v-2.75c0-.3.04-.59.12-.87.08-.27.19-.52.35-.72.15-.2.34-.37.56-.5.43-.24,1.08-.25,1.51,0,.22.12.41.29.56.5.15.21.27.45.35.72.08.28.12.57.12.87v2.75s.58,0,.58,0v-.2s0-2.53,0-2.55c0-.37-.05-.73-.15-1.06-.1-.34-.25-.65-.45-.91Z"/>
    <path class="st0" d="M71.4,36.2c-.2-.27-.45-.48-.74-.65-.3-.16-.64-.25-1.03-.25s-.74.08-1.03.25c-.29.16-.55.38-.75.65-.13.17-.23.36-.32.57-.09-.21-.19-.4-.32-.57-.2-.27-.45-.48-.75-.65-.3-.16-.64-.25-1.02-.25s-.74.08-1.04.25c-.29.16-.54.38-.74.65-.2.26-.35.57-.45.91-.1.34-.15.7-.15,1.06v2.75h.59v-.2c0-.05,0-2.53,0-2.55,0-.3.04-.59.12-.87.08-.27.19-.52.35-.72.15-.2.34-.37.56-.5.42-.24,1.08-.25,1.51,0,.22.12.41.29.56.5.15.21.27.45.35.72.08.28.12.57.12.87v2.75s.03,0,.03,0h.58v-2.75c0-.3.04-.59.12-.87.08-.27.19-.52.35-.72.15-.2.34-.37.56-.5.42-.24,1.07-.25,1.51,0,.22.12.41.29.56.5.15.21.27.45.35.72.08.28.12.57.12.87,0,.02,0,2.51,0,2.55v.2h.59v-2.75c0-.37-.05-.73-.14-1.06-.1-.34-.25-.65-.45-.91Z"/>
    <path class="st0" d="M20.99,36.19c-.21-.26-.47-.48-.78-.64-.31-.16-.67-.24-1.08-.24s-.78.08-1.09.24c-.31.16-.57.38-.78.64-.01.02-.03.03-.04.05v-2.79h-.6v7.47h.6v-2.75c0-.3.04-.59.12-.87.08-.27.21-.52.37-.72.16-.21.36-.37.6-.5.46-.24,1.15-.25,1.62,0,.24.13.44.29.6.5.16.2.28.45.37.72.08.28.12.57.12.87v2.75h.6v-2.75c0-.37-.05-.73-.16-1.07-.1-.34-.27-.65-.48-.91Z"/>
    <path class="st0" d="M55.93,36.19c-.21-.26-.48-.48-.79-.64-.31-.16-.67-.24-1.07-.24s-.77.08-1.09.24c-.31.16-.57.38-.78.64-.21.26-.37.57-.48.91-.1.34-.16.7-.16,1.07v2.75h.6v-2.75c0-.3.04-.59.13-.87.08-.27.2-.52.37-.72.16-.2.36-.37.6-.5.46-.24,1.15-.25,1.62,0,.24.13.44.29.6.5.16.21.28.45.37.72.08.28.13.57.13.87v2.75s.4,0,.4,0h.2v-2.75c0-.37-.05-.73-.16-1.07-.11-.34-.27-.65-.48-.91Z"/>
    <path class="st0" d="M26.72,36.19c-.21-.26-.48-.48-.78-.64-.31-.16-.68-.24-1.08-.24s-.77.08-1.09.24c-.31.16-.57.38-.78.64-.21.26-.37.57-.48.91-.1.34-.16.7-.16,1.07s.05.73.16,1.07c.11.34.27.65.48.91.21.27.48.48.78.64.31.16.67.24,1.08.24s.77-.08,1.08-.24c.31-.16.57-.37.79-.64.01-.02.02-.03.03-.05v.81h.59v-2.65s0-.06,0-.09c0-.37-.05-.73-.16-1.07-.11-.34-.27-.65-.48-.91ZM24.86,35.9c.3,0,.57.06.8.18.24.13.44.29.6.5.16.21.29.45.37.72.08.27.12.55.13.84v.06c0,.3-.04.58-.13.85-.08.27-.2.52-.37.72-.16.21-.36.37-.59.49-.47.24-1.17.24-1.63,0-.23-.12-.43-.29-.59-.49-.16-.21-.29-.45-.37-.72-.09-.28-.13-.58-.13-.88s.04-.58.13-.87c.08-.27.2-.52.37-.72.16-.21.36-.37.6-.5.23-.12.5-.18.81-.18Z"/>
    <path class="st0" d="M48.49,33.45h-.6v2.79s-.02-.03-.03-.04c-.21-.26-.48-.48-.78-.64-.31-.16-.67-.24-1.08-.24s-.77.08-1.09.24c-.31.16-.57.38-.78.64-.21.26-.37.57-.47.91-.11.34-.16.7-.16,1.07s.05.73.16,1.07c.1.34.26.65.47.91.21.27.48.48.78.64.31.16.67.24,1.08.24s.77-.08,1.08-.24c.31-.16.57-.37.79-.64.01-.02.02-.03.03-.05v.81h.6v-2.65s0-.06,0-.09c0-.03,0-.06,0-.12v-4.61ZM45.99,35.9c.3,0,.57.06.8.18.24.13.44.29.6.5.16.21.29.45.37.72.08.27.12.55.12.84v.06c0,.3-.04.58-.12.85-.08.27-.2.51-.37.72-.16.21-.36.37-.59.49-.47.24-1.17.24-1.62,0-.24-.12-.44-.29-.6-.49-.16-.21-.29-.45-.37-.72-.08-.28-.13-.58-.13-.88s.04-.59.13-.87c.08-.27.21-.52.37-.72.16-.21.36-.37.6-.5.23-.12.5-.18.81-.18Z"/>
    <path class="st0" d="M42.08,36.19c-.21-.26-.47-.48-.78-.64-.31-.16-.68-.24-1.08-.24s-.77.08-1.09.24c-.31.16-.57.38-.78.64s-.37.57-.48.91c-.1.34-.16.7-.16,1.07s.05.73.16,1.07c.1.34.26.65.48.91.21.27.48.48.78.64.31.16.67.24,1.08.24s.77-.08,1.08-.24c.31-.16.57-.37.79-.64.01-.02.03-.03.04-.05v.81h.6v-2.65s0-.06,0-.09c0-.37-.05-.73-.15-1.07-.11-.34-.27-.65-.48-.91ZM40.22,35.9c.3,0,.57.06.8.18.24.13.44.3.6.5.16.21.29.45.37.72.08.27.12.55.12.84v.06c0,.3-.04.58-.12.85-.08.27-.21.51-.37.72-.16.21-.36.37-.59.49-.47.24-1.17.24-1.63,0-.23-.12-.43-.29-.59-.49-.16-.21-.28-.45-.37-.72-.08-.28-.12-.57-.12-.88s.04-.59.12-.87c.08-.27.21-.52.37-.72.16-.21.36-.37.6-.5.23-.12.51-.18.81-.18Z"/>
    <path class="st0" d="M61.64,36.19c-.21-.26-.48-.48-.79-.64-.31-.16-.67-.24-1.08-.24s-.77.08-1.09.24c-.31.16-.57.38-.78.64-.21.26-.37.57-.48.91-.1.34-.16.7-.16,1.07s.05.73.16,1.07c.11.34.27.65.48.91.21.27.48.48.78.64.31.16.67.24,1.07.24s.77-.08,1.09-.24c.31-.16.57-.37.79-.64.01-.02.02-.03.03-.05v.81h.59v-2.65s0-.06,0-.09c0-.37-.05-.73-.16-1.07-.11-.34-.27-.65-.48-.91ZM59.78,35.9c.31,0,.57.06.81.18.24.13.44.29.6.5.16.21.29.45.37.72.08.26.12.55.13.84v.06c0,.3-.05.58-.13.85-.08.27-.2.52-.37.72-.16.21-.36.37-.6.49-.47.24-1.17.24-1.63,0-.23-.12-.43-.29-.59-.49-.16-.21-.28-.45-.37-.72-.09-.28-.12-.58-.12-.88s.04-.59.12-.87c.08-.27.21-.52.37-.72.16-.21.36-.37.59-.5.23-.12.51-.18.82-.18Z"/>
  </g>
  <path class="st0" d="M69.91,3.41c-.11-.59-.36-1.1-.78-1.53-.41-.43-1-.74-1.77-.95-.77-.2-1.8-.23-3.08-.07-.43.05-.9.19-1.39.42-.5.23-.98.5-1.46.81-.47.3-.92.61-1.35.93-.42.31-.78.59-1.07.84-.02-.15-.04-.3-.07-.45-.1-.59-.36-1.1-.77-1.53-.41-.43-1-.74-1.77-.95-.77-.2-1.8-.23-3.08-.07-.43.05-.89.19-1.39.42-.5.23-.99.5-1.46.81-.47.3-.92.61-1.35.93-.42.32-.79.6-1.09.85-.02-.16-.04-.31-.07-.46-.11-.59-.36-1.1-.77-1.53-.41-.43-1-.74-1.77-.95-.77-.2-1.8-.23-3.08-.07-.43.05-.89.19-1.39.42-.5.23-.98.5-1.46.81-.47.3-.92.61-1.35.93-.43.32-.79.6-1.1.85.01-.13.02-.25.03-.37-.01.15-.03.31-.04.48-.02-.19-.04-.39-.07-.58-.11-.59-.36-1.1-.77-1.53-.41-.43-1-.74-1.77-.95-.77-.2-1.8-.23-3.08-.07-.43.05-.89.19-1.39.42-.5.23-.98.5-1.46.81-.47.3-.92.61-1.35.93-.35.26-.66.5-.93.71-.01-.11-.03-.22-.05-.33-.04-.24-.12-.47-.21-.69,0,0-.01-.02-.01-.03-.03-.06-.06-.13-.1-.19-.05-.09-.11-.19-.17-.28,0,0,0,0,0,0-.51-.73-1.42-1.32-2.63-1.43-2.4-.22-4.08.37-5.41,1.11-.11.06-.22.13-.33.19-.02,0-.03.02-.05.03h0c-.54.33-1.06.7-1.55,1.14-.14.13-.28.27-.42.4,0-.05,0-.11.01-.16,0,.05,0,.1-.01.16-.6.58-1.15,1.23-1.66,1.93-.63.87-1.19,1.77-1.7,2.71-.5.93-.95,1.85-1.34,2.75-.39.9-.71,1.72-.98,2.46-.27.74-.49,1.36-.65,1.87-.17.51-.28.81-.34.92-.12.23-.18.41-.16.54.02.13.08.19.17.2.1,0,.22-.04.37-.15.15-.11.29-.28.41-.51.06-.11.16-.39.31-.85.15-.46.35-1.03.59-1.7.24-.68.53-1.43.86-2.25.33-.82.71-1.66,1.14-2.5.43-.84.91-1.66,1.44-2.45.53-.79,1.12-1.5,1.76-2.13.64-.62,1.33-1.12,2.07-1.49.74-.38,1.53-.56,2.39-.56.96,0,1.6.33,1.9,1,.31.67.38,1.56.23,2.66-.15,1.11-.49,2.37-1.01,3.78-.19.52-.4,1.05-.61,1.58-.3.69-.62,1.4-.97,2.11-.74,1.54-1.52,3.07-2.34,4.58-.82,1.51-1.56,2.88-2.23,4.11-.06.11-.12.22-.18.33-.34.57-.69,1.15-1.05,1.74-.36.95-.54,1.74-.53,2.38.01.64.13,1.12.36,1.45.23.33.53.5.91.53.38.02.74-.11,1.09-.39.13-.11.4-.46.81-1.05.09-.12.18-.25.27-.39.03-.03.06-.07.09-.12.74-1.05,1.66-2.52,2.24-3.52h0s.03-.05.04-.08c.09-.16.17-.3.24-.43,0,0,0,0,0,0,.55-1.02,1.1-2.05,1.64-3.11.61-1.18,1.18-2.35,1.72-3.51.54-1.16,1.03-2.23,1.46-3.22.43-.99.79-1.85,1.07-2.59.28-.74.45-1.28.52-1.62.09-.45.2-.98.34-1.58.14-.6.23-1.21.28-1.84.02-.33.03-.66.01-.98.16-.12.33-.24.52-.38.32-.22.67-.45,1.04-.66.37-.22.75-.41,1.14-.58.39-.17.76-.28,1.11-.33,1.25-.19,2.11,0,2.56.58.46.58.64,1.4.54,2.47-.1,1.07-.41,2.33-.95,3.76-.54,1.43-1.18,2.92-1.92,4.46-.74,1.54-1.52,3.07-2.34,4.58-.82,1.51-1.56,2.88-2.23,4.11-.06.11-.12.22-.18.33-.34.57-.69,1.15-1.05,1.74-.37.95-.54,1.74-.53,2.38.01.64.13,1.12.36,1.45.23.33.53.5.91.53.38.02.74-.11,1.09-.39.13-.11.4-.46.82-1.05.08-.12.17-.25.27-.39.03-.03.06-.07.09-.12.75-1.05,1.66-2.52,2.24-3.52h0s.03-.05.04-.08c.09-.16.17-.3.24-.43,0,0,0,0,0,0,.55-1.02,1.1-2.05,1.64-3.11.61-1.18,1.18-2.35,1.72-3.51.54-1.16,1.03-2.23,1.46-3.22.43-.99.79-1.85,1.06-2.59.28-.74.45-1.28.52-1.62.09-.45.2-.98.34-1.58.14-.6.23-1.21.28-1.84.02-.28.02-.55.01-.82.2-.16.44-.33.73-.53.32-.22.67-.45,1.04-.66.37-.22.75-.41,1.14-.58.38-.17.75-.28,1.1-.33,1.25-.19,2.11,0,2.56.58.45.58.63,1.4.54,2.47-.1,1.07-.41,2.33-.95,3.76-.54,1.43-1.17,2.92-1.92,4.46-.74,1.54-1.53,3.07-2.34,4.58-.82,1.51-1.56,2.88-2.24,4.11-.06.11-.12.22-.18.33-.34.57-.69,1.15-1.05,1.74-.37.95-.54,1.74-.53,2.38.01.64.13,1.12.36,1.45.23.33.53.5.91.53.38.02.75-.11,1.09-.39.13-.11.41-.46.82-1.05.08-.12.17-.25.27-.39.03-.03.06-.07.09-.12.74-1.05,1.66-2.52,2.24-3.52h0s.03-.05.04-.08c.09-.16.17-.3.24-.43,0,0,0,0,0,0,.55-1.02,1.1-2.05,1.64-3.11.61-1.18,1.18-2.35,1.72-3.51.54-1.16,1.02-2.23,1.46-3.22.43-.99.79-1.85,1.06-2.59.28-.74.45-1.28.53-1.62.08-.45.2-.98.34-1.58.14-.6.23-1.21.28-1.84.02-.29.03-.56.01-.84.2-.15.43-.32.7-.51.32-.22.67-.45,1.04-.66.37-.22.75-.41,1.14-.58.39-.17.76-.28,1.11-.33,1.25-.19,2.11,0,2.56.58.46.58.63,1.4.54,2.47-.1,1.07-.41,2.33-.95,3.76-.54,1.43-1.18,2.92-1.92,4.46-.74,1.54-1.52,3.07-2.34,4.58-.82,1.51-1.56,2.88-2.24,4.11-.06.11-.12.22-.18.33-.34.57-.69,1.15-1.05,1.74-.37.95-.54,1.74-.53,2.38.01.64.13,1.12.36,1.45.23.33.53.5.91.53.38.02.74-.11,1.09-.39.13-.11.41-.46.82-1.05.08-.12.18-.25.27-.39.03-.03.06-.07.09-.12.74-1.05,1.66-2.52,2.25-3.52h0s.03-.05.04-.08c.09-.16.17-.3.24-.43,0,0,0,0,0,0,.55-1.02,1.1-2.05,1.64-3.11.61-1.18,1.18-2.35,1.72-3.51.54-1.16,1.02-2.23,1.46-3.22.43-.99.79-1.85,1.06-2.59.28-.74.45-1.28.53-1.62.08-.45.2-.98.34-1.58.14-.6.23-1.21.28-1.84.02-.29.02-.57.01-.86.19-.15.42-.31.68-.5.32-.22.67-.45,1.04-.66.37-.22.75-.41,1.14-.58.39-.17.76-.28,1.11-.33,1.25-.19,2.1,0,2.56.58.46.58.63,1.4.54,2.47-.1,1.07-.41,2.33-.95,3.76-.54,1.43-1.18,2.92-1.92,4.46-.74,1.54-1.53,3.07-2.34,4.58-.82,1.51-1.56,2.88-2.23,4.11-.06.11-.12.22-.18.33-.34.57-.69,1.15-1.05,1.74-.37.95-.54,1.74-.53,2.38.01.64.13,1.12.36,1.45.23.33.53.5.91.53.38.02.74-.11,1.09-.39.13-.11.4-.46.82-1.05.08-.12.17-.25.27-.39.03-.03.06-.07.09-.12.74-1.05,1.66-2.52,2.24-3.52h0s.03-.05.04-.08c.09-.16.17-.3.24-.43,0,0,0,0,0,0,.55-1.02,1.1-2.05,1.64-3.11.61-1.18,1.18-2.35,1.72-3.51.54-1.16,1.03-2.23,1.46-3.22.43-.99.79-1.85,1.07-2.59.28-.74.45-1.28.53-1.62.08-.45.2-.98.34-1.58.14-.6.23-1.21.28-1.84.05-.63.02-1.24-.09-1.83Z"/>
</svg>